<svg height="512pt" viewBox="0 -94 512 512" width="512pt" xmlns="http://www.w3.org/2000/svg"><path d="m91.601562 293.839844c-33.925781 0-61.523437-27.601563-61.523437-61.527344 0-24.242188 14.097656-45.246094 34.523437-55.265625l13.675782-35.363281c-44.214844 6.472656-78.277344 44.644531-78.277344 90.628906 0 50.511719 41.09375 91.605469 91.601562 91.605469 34.117188 0 63.933594-18.75 79.695313-46.484375h-37.925781c-10.980469 10.171875-25.65625 16.40625-41.769532 16.40625zm0 0" fill="#24425A"/><path d="m438.070312 142.429688 11.960938 35.988281c18.992188 10.484375 31.890625 30.707031 31.890625 53.894531 0 33.925781-27.597656 61.527344-61.523437 61.527344-33.925782 0-61.523438-27.601563-61.523438-61.527344 0-9.066406 1.988281-17.675781 5.527344-25.433594l-8.070313-24.28125-24.09375 24.8125c-2.242187 7.921875-3.441406 16.273438-3.441406 24.90625 0 50.507813 41.089844 91.601563 91.601563 91.601563 50.507812 0 91.601562-41.09375 91.601562-91.601563 0-44.46875-31.847656-81.628906-73.929688-89.886718zm0 0"  fill="#24425A"/><path d="m406.125 237.058594c2.097656 6.304687 7.96875 10.296875 14.269531 10.296875 1.570313 0 3.171875-.246094 4.746094-.769531 7.878906-2.621094 12.148437-11.132813 9.527344-19.015626l-65.632813-197.492187h43.574219c1.53125 0 2.773437 1.246094 2.773437 2.777344 0 1.527343-1.242187 2.773437-2.773437 2.773437-8.304687 0-15.039063 6.734375-15.039063 15.039063 0 8.304687 6.734376 15.039062 15.039063 15.039062 18.113281 0 32.851563-14.738281 32.851563-32.851562 0-18.117188-14.734376-32.855469-32.851563-32.855469h-64.417969c-4.832031 0-9.371094 2.320312-12.195312 6.242188-2.828125 3.917968-3.601563 8.957031-2.074219 13.539062l20.988281 63.164062h-189.417968l8.84375-22.863281h22.800781c8.304687 0 15.039062-6.730469 15.039062-15.039062 0-8.304688-6.734375-15.039063-15.039062-15.039063h-66.21875c-8.304688 0-15.039063 6.734375-15.039063 15.039063 0 8.308593 6.734375 15.039062 15.039063 15.039062h11.167969l-12.042969 31.136719c-.011719.023438-.019531.046875-.035157.070312-.429687.867188-.769531 1.757813-1.023437 2.667969l-51.410156 132.933594c-1.789063 4.625-1.179688 9.835937 1.625 13.925781 2.800781 4.089844 7.441406 6.535156 12.402343 6.535156h153.40625c.054688 0 .105469.003907.160157.003907 3.0625 0 6.152343-.933594 8.8125-2.863281.160156-.117188.320312-.238282.480469-.359376.605468-.476562 1.160156-.992187 1.671874-1.535156l113.125-116.480468zm-292.582031-19.785156 34.277343-88.628907 67.089844 88.628907zm133.03125-8.003907-72.851563-96.242187h166.320313zm0 0" fill="#24425A"/></svg>
