<svg width="24" height="24" viewBox="0 0 24 24" fill="none" xmlns="http://www.w3.org/2000/svg">
<path d="M22.9692 15.6424C22.8948 14.7963 22.1668 10.5891 21.5371 9.55792C21.1061 8.77394 20.3625 8.21861 19.1969 7.80994C17.6432 7.26532 15.3858 7.00031 12.2956 7H12.2904C10.2371 7 8.44967 7.14362 6.97755 7.42677C5.70798 7.6711 4.66441 8.02014 3.87583 8.46422C3.21524 8.83627 2.65047 9.37824 2.19723 10.0749C1.78852 10.7031 1.47715 11.4447 1.27179 12.279C0.903312 13.776 0.909867 15.4987 1.28925 16.8871C1.47352 17.5613 1.73954 18.1247 2.05863 18.5163C2.40816 18.9451 2.82598 19.1718 3.26687 19.1718H9.58949C9.64355 19.1718 9.6884 19.1309 9.69208 19.0781C9.77461 17.8964 10.7884 16.9707 12.0001 16.9707C13.2118 16.9707 14.2256 17.8964 14.3081 19.0781C14.3118 19.1309 14.3567 19.1718 14.4107 19.1718H20.0697C21.0687 19.1718 21.8253 18.9055 22.3181 18.3801C23.049 17.6009 23.0397 16.4445 22.9692 15.6424ZM9.53454 11.9153C9.53454 12.0435 9.42499 12.1475 9.28975 12.1475H5.17845C5.04326 12.1475 4.93367 12.0435 4.93367 11.9153V9.74116C4.93367 9.61291 5.04326 9.50904 5.17845 9.50904H9.28975C9.42494 9.50904 9.53454 9.61291 9.53454 9.74116V11.9153ZM14.4225 11.9384C14.4225 12.0675 14.3155 12.1722 14.1834 12.1722H11.9447C11.8127 12.1722 11.7056 12.0675 11.7056 11.9384V9.74836C11.7056 9.61919 11.8127 9.51453 11.9447 9.51453H14.1834C14.3155 9.51453 14.4225 9.61919 14.4225 9.74836V11.9384ZM19.1596 17.0668C19.1596 17.2225 19.0307 17.3486 18.8717 17.3486H15.9718C15.8128 17.3486 15.6839 17.2225 15.6839 17.0668V9.79614C15.6839 9.64062 15.8128 9.51453 15.9718 9.51453H18.8717C19.0307 9.51453 19.1596 9.64062 19.1596 9.79614V17.0668Z" fill="#24425A"/>
<path d="M12 21C12.8708 21 13.5767 20.3095 13.5767 19.4576C13.5767 18.6058 12.8708 17.9153 12 17.9153C11.1292 17.9153 10.4233 18.6058 10.4233 19.4576C10.4233 20.3095 11.1292 21 12 21Z" fill="#24425A"/>
</svg>
