<svg width="24" height="24" viewBox="0 0 24 24" fill="none" xmlns="http://www.w3.org/2000/svg">
<g clip-path="url(#clip0)">
<path d="M22.682 0H5.38211C2.96561 0 1.0434 1.92221 1.0434 4.3387C1.0434 6.64535 2.85577 8.51264 5.10751 8.6774L2.96561 15.1579L0.878642 15.4875C0.0548376 15.6523 -0.549286 16.3662 -0.549286 17.245V19.4418C-0.549286 20.2656 -8.27862e-05 20.9795 0.823722 21.1443C0.933562 18.9475 2.80085 17.19 5.05259 17.19C7.30432 17.19 9.17161 19.0024 9.28145 21.1992H12.0275H12.5767V11.4234C12.5767 10.5447 13.2906 9.7758 14.2243 9.7758H18.0138C18.8925 9.7758 19.6614 10.4898 19.6614 11.4234V17.245C21.6935 17.4647 23.2861 19.0573 23.4509 21.1443C24.11 20.8697 24.5493 20.2656 24.5493 19.4967V8.6774V3.24029V1.75745C24.4395 0.768883 23.6705 0 22.682 0ZM10.3249 13.8948L4.8329 14.8285L6.37067 10.2152H10.3249V13.8948Z" fill="gray"/>
<path d="M18.4531 11.423C18.4531 11.1484 18.2334 10.8738 17.9039 10.8738H14.1144C13.8398 10.8738 13.5652 11.1484 13.5652 11.423V21.2537H14.9382C15.048 19.2217 16.5309 17.629 18.4531 17.2995V11.423Z" fill="gray"/>
<path d="M4.99767 23.9999C6.42325 23.9999 7.57892 22.8442 7.57892 21.4187C7.57892 19.9931 6.42325 18.8374 4.99767 18.8374C3.57208 18.8374 2.41641 19.9931 2.41641 21.4187C2.41641 22.8442 3.57208 23.9999 4.99767 23.9999Z" fill="gray"/>
<path d="M19.1671 23.9999C20.5927 23.9999 21.7484 22.8442 21.7484 21.4187C21.7484 19.9931 20.5927 18.8374 19.1671 18.8374C17.7415 18.8374 16.5859 19.9931 16.5859 21.4187C16.5859 22.8442 17.7415 23.9999 19.1671 23.9999Z" fill="gray"/>
</g>
<defs>
<clipPath id="clip0">
<rect width="24" height="24" fill="white"/>
</clipPath>
</defs>
</svg>
