<svg width="31" height="24" viewBox="0 0 31 24" fill="none" xmlns="http://www.w3.org/2000/svg">
<path d="M30.9566 16.3463C30.8517 15.1376 29.8259 9.12726 28.9386 7.65417C28.3314 6.5342 27.2835 5.74088 25.6411 5.15705C23.4518 4.37903 20.2709 4.00044 15.9165 4H15.9092C13.016 4 10.4973 4.20517 8.42292 4.60968C6.63397 4.95872 5.16349 5.45734 4.0523 6.09174C3.12148 6.62324 2.32566 7.39749 1.687 8.39266C1.1111 9.29008 0.672351 10.3495 0.382976 11.5415C-0.136243 13.68 -0.127006 16.141 0.407586 18.1244C0.667226 19.0876 1.04207 19.8924 1.4917 20.4518C1.98422 21.0644 2.57297 21.3883 3.19423 21.3883H12.1034C12.1795 21.3883 12.2427 21.3298 12.2479 21.2545C12.3642 19.5663 13.7927 18.2438 15.5002 18.2438C17.2076 18.2438 18.6361 19.5663 18.7524 21.2545C18.7576 21.3298 18.8208 21.3883 18.8969 21.3883H26.8709C28.2787 21.3883 29.3447 21.0078 30.0391 20.2572C31.069 19.1442 31.0559 17.4921 30.9566 16.3463ZM12.0259 11.0219C12.0259 11.2051 11.8716 11.3536 11.681 11.3536H5.88781C5.69732 11.3536 5.54289 11.2051 5.54289 11.0219V7.91594C5.54289 7.73273 5.69732 7.58434 5.88781 7.58434H11.681C11.8715 7.58434 12.0259 7.73273 12.0259 7.91594V11.0219ZM18.9135 11.0548C18.9135 11.2393 18.7627 11.3888 18.5766 11.3888H15.4221C15.236 11.3888 15.0852 11.2393 15.0852 11.0548V7.92623C15.0852 7.7417 15.236 7.59218 15.4221 7.59218H18.5766C18.7627 7.59218 18.9135 7.7417 18.9135 7.92623V11.0548ZM25.5886 18.3812C25.5886 18.6035 25.4069 18.7836 25.1828 18.7836H21.0967C20.8726 18.7836 20.6909 18.6035 20.6909 18.3812V7.99449C20.6909 7.77232 20.8726 7.59218 21.0967 7.59218H25.1828C25.4069 7.59218 25.5886 7.77232 25.5886 7.99449V18.3812Z" fill="gray"/>
<path d="M15.5 24C16.727 24 17.7217 23.0135 17.7217 21.7966C17.7217 20.5798 16.727 19.5933 15.5 19.5933C14.273 19.5933 13.2783 20.5798 13.2783 21.7966C13.2783 23.0135 14.273 24 15.5 24Z" fill="gray"/>
</svg>
