<svg width="24" height="24" viewBox="0 0 24 24" fill="none" xmlns="http://www.w3.org/2000/svg">
<path d="M22.5832 9.61354C22.7508 9.4763 23 9.60469 23 9.82161V18.875C23 20.0482 22.0762 21 20.9375 21H3.0625C1.92383 21 1 20.0482 1 18.875V9.82604C1 9.60469 1.24492 9.48073 1.4168 9.61797C2.3793 10.3883 3.65547 11.3667 8.03828 14.6471C8.94492 15.3289 10.4746 16.7633 12 16.7544C13.534 16.7677 15.0937 15.3023 15.966 14.6471C20.3488 11.3667 21.6207 10.3839 22.5832 9.61354ZM12 15.3333C12.9969 15.351 14.432 14.0406 15.1539 13.5005C20.8559 9.23724 21.2898 8.86536 22.6047 7.80286C22.8539 7.60365 23 7.29375 23 6.96615V6.125C23 4.95182 22.0762 4 20.9375 4H3.0625C1.92383 4 1 4.95182 1 6.125V6.96615C1 7.29375 1.14609 7.59922 1.39531 7.80286C2.71016 8.86094 3.14414 9.23724 8.84609 13.5005C9.56797 14.0406 11.0031 15.351 12 15.3333Z" fill="#24425A"/>
</svg>
