<svg width="24" height="24" viewBox="0 0 24 24" fill="none" xmlns="http://www.w3.org/2000/svg">
<path d="M3.45591 10.8642C3.36662 10.7918 3.27906 10.7173 3.19324 10.6408V19.0682C3.19324 19.0729 3.19367 19.0756 3.19389 19.0767L3.19436 19.0784C3.19445 19.0787 3.1949 19.0797 3.19628 19.0817C3.1977 19.0838 3.20046 19.0874 3.20543 19.0924C3.2104 19.0973 3.21401 19.1001 3.21608 19.1015C3.21808 19.1029 3.21913 19.1033 3.21935 19.1034L3.22105 19.1039C3.22216 19.1041 3.22486 19.1045 3.22961 19.1045H21.0023C21.0071 19.1045 21.0098 19.1041 21.0109 19.1039L21.0126 19.1034C21.0128 19.1033 21.0139 19.1029 21.0159 19.1015C21.0179 19.1001 21.0215 19.0973 21.0265 19.0924C21.0315 19.0874 21.0342 19.0838 21.0357 19.0817C21.037 19.0797 21.0375 19.0787 21.0376 19.0784L21.0381 19.0767C21.0383 19.0756 21.0387 19.0729 21.0387 19.0682V10.6408C20.9529 10.7173 20.8653 10.7918 20.776 10.8642L20.7761 10.8643L20.7689 10.8698C18.6138 12.5264 16.9037 13.8833 15.6371 14.9414C15.2247 15.2891 14.8851 15.5634 14.62 15.7622C14.3343 15.9765 13.961 16.1839 13.5091 16.3871C13.036 16.5997 12.5744 16.7136 12.128 16.7136H12.116H12.1039C11.6575 16.7136 11.1959 16.5997 10.7228 16.3871C10.2709 16.1839 9.8976 15.9765 9.61194 15.7622C9.34684 15.5634 9.00726 15.2891 8.5948 14.9414C7.32827 13.8833 5.61818 12.5264 3.46304 10.8698L3.46297 10.8699L3.45591 10.8642ZM9.67724 12.914L9.6773 12.9139L9.68379 12.9193C9.73322 12.9605 9.8752 13.0802 10.1082 13.277C10.34 13.4729 10.5201 13.6196 10.6503 13.7191C10.7794 13.8178 10.9521 13.9402 11.1704 14.0871C11.3772 14.2262 11.5575 14.323 11.7123 14.3836C11.866 14.4437 11.9955 14.4682 12.1039 14.4682H12.116H12.128C12.2365 14.4682 12.366 14.4437 12.5197 14.3836C12.6745 14.323 12.8548 14.2262 13.0616 14.0871C13.2799 13.9402 13.4526 13.8178 13.5816 13.7191C13.7118 13.6196 13.8919 13.4729 14.1238 13.277C14.3567 13.0802 14.4987 12.9605 14.5482 12.9193L14.5481 12.9193L14.5547 12.914C16.229 11.5859 17.8429 10.31 19.3966 9.0864C19.7946 8.76931 20.1744 8.33591 20.5327 7.77731C20.8865 7.22563 21.0387 6.76235 21.0387 6.37855V6.24574V6.08947L21.0386 6.08638L21.0374 6.05695L21.0337 5.96C21.0265 5.94982 21.0207 5.94069 21.0161 5.93322C21.0134 5.92886 21.0108 5.92447 21.0083 5.92004C20.9797 5.91362 20.9524 5.90519 20.9266 5.89546H3.22961C3.22486 5.89546 3.22216 5.89588 3.22105 5.8961L3.21935 5.89657C3.21926 5.89661 3.21903 5.89671 3.21865 5.8969C3.21811 5.89719 3.21726 5.89768 3.21608 5.89849C3.21401 5.89991 3.2104 5.90267 3.20543 5.90764C3.20046 5.91261 3.1977 5.91622 3.19628 5.91829C3.1949 5.92029 3.19445 5.92134 3.19436 5.92156L3.19389 5.92326C3.19367 5.92437 3.19324 5.92707 3.19324 5.93182C3.19324 7.1637 3.72481 8.21003 4.83492 9.08604C6.38869 10.3097 8.00279 11.5857 9.67724 12.914ZM23.2842 5.93182V19.0682C23.2842 19.693 23.0576 20.2366 22.6142 20.68C22.1707 21.1234 21.6271 21.35 21.0023 21.35H3.22961C2.60479 21.35 2.0612 21.1234 1.61777 20.68C1.17435 20.2366 0.947791 19.693 0.947791 19.0682V5.93182C0.947791 5.307 1.17435 4.76341 1.61777 4.31998C2.0612 3.87656 2.60479 3.65 3.22961 3.65H21.0023C21.6271 3.65 22.1707 3.87656 22.6142 4.31998C23.0576 4.76341 23.2842 5.307 23.2842 5.93182Z" fill="#24425A" stroke="#24425A" stroke-width="0.7"/>
</svg>
