<svg width="512" height="512" viewBox="0 0 512 512" fill="none" xmlns="http://www.w3.org/2000/svg">
<path d="M297.492 228.648C301.715 226.539 306.684 226.535 310.91 228.648L336.012 241.203L367.371 224.004L318.051 105.629C315.719 100.039 310.262 96.3984 304.199 96.3984C298.141 96.3984 292.68 100.039 290.352 105.629L241.027 224.004L272.387 241.203L297.492 228.648Z" fill="#24425A"/>
<path d="M462.371 452L378.98 251.859V251.852L343.551 271.289C339.23 273.648 334.031 273.75 329.621 271.551L304.199 258.84L278.77 271.551C273.57 274.148 268.301 273.18 264.852 271.289L229.422 251.852V251.859L216.012 284.051C237.609 335.871 269.102 411.449 285.988 452H462.371Z" fill="#24425A"/>
<path d="M151.57 231.359C145.512 231.359 140.051 235 137.719 240.59L49.6406 452H253.5L165.41 240.59C163.078 235 157.621 231.359 151.57 231.359Z" fill="#24425A"/>
<path d="M497 482H15C6.71484 482 0 488.715 0 497C0 505.285 6.71484 512 15 512H497C505.285 512 512 505.285 512 497C512 488.715 505.285 482 497 482Z" fill="#24425A"/>
<path d="M47.1328 142.469H159.602C185.59 142.469 206.734 121.324 206.734 95.3359C206.734 69.0469 185.398 48.1992 159.602 48.1992H158.098C154.66 21.0586 131.426 0 103.367 0C75.3086 0 52.0742 21.0586 48.6367 48.1992H47.1328C20.8008 48.1992 0 69.5781 0 95.332C0 121.324 21.1445 142.469 47.1328 142.469Z" fill="#24425A"/>
</svg>
