<svg width="581" height="583" viewBox="0 0 581 583" fill="none" xmlns="http://www.w3.org/2000/svg">
<g clip-path="url(#clip0)">
<path d="M82.7243 580.982C51.5746 570.754 24.7344 548.067 9.31676 518.936C1.13164 503.47 0 497.269 0 467.884C0 438.217 1.09289 432.359 9.66722 416.069C21.9448 392.743 39.2613 375.43 62.5927 363.155C78.8866 354.583 84.7458 353.49 114.419 353.49C143.811 353.49 150.013 354.622 165.482 362.805C187.903 374.665 207.658 394.416 219.521 416.831C227.706 432.297 228.838 438.498 228.838 467.884C228.838 497.269 227.706 503.47 219.521 518.936C207.563 541.53 187.731 561.262 165.482 572.7C151.779 579.745 141.627 581.987 119.701 582.813C104.206 583.396 87.5665 582.572 82.7243 580.982V580.982ZM136.225 534.161C179.565 521.179 198.026 463.817 170.909 426.391C133.216 374.369 50.0784 398.008 44.7486 462.264C40.5466 512.922 86.5144 549.051 136.225 534.161V534.161ZM434.887 492.961C403.737 482.733 376.897 460.047 361.479 430.915C353.294 415.449 352.162 409.248 352.162 379.863C352.162 350.196 353.255 344.338 361.829 328.048C374.107 304.722 391.424 287.409 414.755 275.135C431.049 266.562 436.908 265.47 466.581 265.47C495.973 265.47 502.175 266.601 517.645 274.784C540.065 286.645 559.82 306.395 571.683 328.811C579.868 344.277 581 350.478 581 379.863C581 409.248 579.868 415.449 571.683 430.915C559.725 453.51 539.893 473.241 517.645 484.679C503.941 491.724 493.789 493.967 471.864 494.792C456.368 495.375 439.729 494.551 434.887 492.961ZM488.387 446.14C531.727 433.158 550.188 375.796 523.071 338.371C485.378 286.348 402.241 309.987 396.911 374.243C392.709 424.901 438.677 461.03 488.387 446.14ZM269.379 409.816L247.673 344.708L218.903 336.091C203.08 331.352 173.6 322.719 153.392 316.906C133.184 311.093 112.744 303.421 107.968 299.857C88.3571 285.218 80.9069 254.846 91.0765 230.995C95.9282 219.616 164.34 135.608 194.204 104.358C208.125 89.7901 212.024 87.6338 224.447 87.6338C237.098 87.6338 244.514 91.9686 290.136 126.026L341.564 164.418L382.062 168.392C444.943 174.562 439.775 171.295 436.896 203.052C435.549 217.918 433.884 230.643 433.197 231.33C432.51 232.017 405.635 229.828 373.475 226.467L315.003 220.354L287.021 199.484C271.631 188.006 257.64 179.48 255.93 180.537C249.033 184.798 198.528 249.598 200.122 252.14C201.065 253.643 222.474 265.071 247.696 277.535L293.555 300.197L320.431 379.115C335.212 422.521 346.807 458.439 346.196 458.935C343.675 460.978 299.363 474.925 295.391 474.925C292.935 474.925 281.759 446.95 269.379 409.816ZM40.1604 207.462C26.0041 203.229 13.7686 194.018 9.31299 184.242C4.09814 172.799 4.102 152.711 9.32092 142.855C14.6353 132.819 50.9512 88.5604 63.9088 76.3279C75.5481 65.3398 99.6007 55.9463 116.097 55.9463C138.635 55.9463 173.018 73.1649 169.384 82.6321C165.363 93.1082 78.9484 199.224 71.4204 202.929C58.8028 209.141 50.0278 210.413 40.1604 207.462V207.462ZM294.094 107.879C272.674 96.9364 264.841 84.9256 263.124 60.3946C261.936 43.427 263.067 38.0976 270.023 27.8635C274.598 21.132 283.851 11.8816 290.584 7.30711C300.82 0.352437 306.151 -0.777467 323.122 0.40979C335.989 1.30935 346.947 4.39925 353.056 8.84927C365.169 17.672 378.541 43.4091 378.541 57.899C378.541 76.0778 364.31 98.534 346.987 107.693C327.696 117.892 313.79 117.941 294.094 107.879V107.879Z" fill="#24425A"/>
</g>
<defs>
<clipPath id="clip0">
<rect width="581" height="583" fill="white"/>
</clipPath>
</defs>
</svg>
