<svg width="24" height="24" viewBox="0 0 24 24" fill="none" xmlns="http://www.w3.org/2000/svg">
<path d="M21.728 20.2913L17.8332 16.3971C17.6574 16.2214 17.4191 16.1237 17.1691 16.1237H16.5323C17.6105 14.7449 18.2512 13.0107 18.2512 11.1242C18.2512 6.63636 14.6142 3 10.1256 3C5.63698 3 2 6.63636 2 11.1242C2 15.612 5.63698 19.2484 10.1256 19.2484C12.0125 19.2484 13.747 18.6079 15.126 17.5298V18.1665C15.126 18.4165 15.2236 18.6547 15.3994 18.8305L19.2942 22.7246C19.6614 23.0918 20.2552 23.0918 20.6185 22.7246L21.7241 21.6193C22.0913 21.2521 22.0913 20.6584 21.728 20.2913ZM10.1256 16.1237C7.36367 16.1237 5.12523 13.8896 5.12523 11.1242C5.12523 8.36276 7.35977 6.12469 10.1256 6.12469C12.8875 6.12469 15.126 8.35885 15.126 11.1242C15.126 13.8857 12.8914 16.1237 10.1256 16.1237Z" fill="#24425A"/>
</svg>
