<svg width="517" height="517" viewBox="0 0 517 517" fill="none" xmlns="http://www.w3.org/2000/svg">
<g clip-path="url(#clip0)">
<path d="M514.035 188.772C511.507 185.688 507.734 183.887 503.776 183.887H453.459C441.042 151.136 424.866 119.047 406.479 106.934C342.871 65.0889 174.156 65.0889 110.549 106.934C92.1485 119.061 76.0381 151.189 63.5549 183.887H13.2383C9.24051 183.887 5.48099 185.688 2.97905 188.772C0.463884 191.844 -0.542184 195.908 0.278556 199.813L7.7314 235.926C9.00223 242.082 14.4297 246.477 20.6911 246.477H35.5968C21.2074 263.078 14.2311 283.981 14.1385 304.897C14.0458 330.737 23.855 354.089 41.7921 370.611C41.9907 370.783 42.1892 370.902 42.3746 371.074V421.604C42.3746 432.552 51.2703 441.461 62.2312 441.461H108.643C119.604 441.461 128.499 432.552 128.499 421.604V401.296H388.502V421.604C388.502 432.552 397.397 441.461 408.358 441.461H454.77C465.704 441.461 474.626 432.552 474.626 421.604V372.067C493.662 354.632 502.757 330.645 502.876 306.697C502.955 285.066 495.661 263.395 480.425 246.451H496.323C502.611 246.451 508.038 242.056 509.283 235.887L516.749 199.786C517.517 195.908 516.55 191.87 514.035 188.772ZM132.351 140.096C183.052 106.723 333.949 106.723 384.623 140.096C394.472 146.556 407.14 172.675 418.75 204.658H98.2511C109.834 172.688 122.503 146.583 132.351 140.096ZM72.967 309.874C72.967 288.296 90.4673 270.822 112.032 270.822C133.622 270.822 151.096 288.296 151.096 309.874C151.096 331.452 133.622 348.94 112.032 348.94C90.4673 348.94 72.967 331.452 72.967 309.874ZM405.486 348.94C383.921 348.94 366.421 331.452 366.421 309.874C366.421 288.296 383.921 270.822 405.486 270.822C427.076 270.822 444.55 288.296 444.55 309.874C444.55 331.452 427.05 348.94 405.486 348.94Z" fill="#24425A"/>
</g>
<defs>
<clipPath id="clip0">
<rect width="517" height="517" fill="white"/>
</clipPath>
</defs>
</svg>
