<svg width="512" height="512" viewBox="0 0 512 512" fill="none" xmlns="http://www.w3.org/2000/svg">
<path d="M502.699 324.547C488.387 318.645 440.488 280.34 383.426 318.367C361.133 333.219 332.363 333.219 310.066 318.367C277.664 296.774 235.828 296.774 203.426 318.367C181.133 333.219 152.363 333.219 130.066 318.367C72.2031 279.809 23.0742 320.61 13.7109 321.414C5.96094 322.074 0 328.563 0 336.356V496.778C0 505.071 6.71094 511.778 15 511.778H497C505.289 511.778 512 505.071 512 496.778V338.418C512 332.34 508.324 326.863 502.699 324.547V324.547Z" fill="#24425A"/>
<path d="M346 164.777C346 189.59 366.188 209.777 391 209.777C415.812 209.777 436 189.59 436 164.777C436 139.965 415.812 119.777 391 119.777C366.188 119.777 346 139.961 346 164.777Z" fill="#24425A"/>
<path d="M327.996 5.78531L208.039 95.7697C194.863 105.555 191.957 124.391 202.008 137.781L241 189.781L110.297 276.922C123.121 280.477 135.43 285.891 146.707 293.406C158.855 301.485 174.496 301.578 186.785 293.406C207.633 279.52 231.828 272.18 256.746 272.18C281.664 272.18 305.863 279.52 326.707 293.406C338.855 301.485 354.496 301.578 366.785 293.406C372.895 289.336 379.355 286.012 385.973 283.086L267.996 125.785L363.961 53.7853C377.266 43.9064 379.949 25.0002 369.992 11.7892C360.387 -1.04281 341.02 -3.94125 327.996 5.78531V5.78531Z" fill="#24425A"/>
</svg>
