<svg width="24" height="24" viewBox="0 0 24 24" fill="none" xmlns="http://www.w3.org/2000/svg">
<path d="M23.425 20.625H22.5381L13.921 8.36968L15.8404 5.6403C16.0269 5.37497 15.9701 5.0035 15.7132 4.81091L14.7824 4.11362C14.5254 3.92103 14.1661 3.97966 13.9792 4.24536L12.5 6.34908L11.0205 4.24499C10.8339 3.97966 10.4742 3.92066 10.2173 4.11325L9.28719 4.81091C9.03023 5.0035 8.97309 5.37497 9.15997 5.6403L11.0794 8.36968L2.46194 20.625H1.575C1.25731 20.625 1 20.8907 1 21.2188V22.4063C1 22.7343 1.25731 23 1.575 23H23.425C23.7427 23 24 22.7343 24 22.4063V21.2188C24 20.8907 23.7427 20.625 23.425 20.625ZM12.5 14.6875L16.6817 20.625H8.31831L12.5 14.6875Z" fill="gray"/>
</svg>
