<svg width="24" height="24" viewBox="0 0 24 24" fill="none" xmlns="http://www.w3.org/2000/svg">
<path d="M21.525 19H20.7923L13.6738 8.67973L15.2595 6.3813C15.4135 6.15787 15.3666 5.84506 15.1544 5.68287L14.3855 5.09568C14.1732 4.9335 13.8763 4.98287 13.7219 5.20662L12.5 6.97818L11.2778 5.20631C11.1237 4.98287 10.8265 4.93318 10.6143 5.09537L9.84594 5.68287C9.63367 5.84506 9.58647 6.15787 9.74084 6.3813L11.3265 8.67973L4.20769 19H3.475C3.21256 19 3 19.2238 3 19.5V20.5C3 20.7763 3.21256 21 3.475 21H21.525C21.7874 21 22 20.7763 22 20.5V19.5C22 19.2238 21.7874 19 21.525 19ZM12.5 14L15.9544 19H9.04556L12.5 14Z" fill="#24425A"/>
</svg>
