<svg viewBox="0 0 628 165" fill="none" xmlns="http://www.w3.org/2000/svg">
<g id="car-combo">
<ellipse id="car-shadow" cx="313" cy="153.5" rx="302" ry="11.5" fill="#C4C4C4"/>
<g id="caravan">
<path id="Vector" d="M1.05811 103.417C1.12922 136.217 34.6285 135.845 52.1284 135.807L100.128 135.703C100.082 114.203 118.073 110.164 124.573 110.149C131.073 110.135 147.582 114.1 147.628 135.6L212.128 135.46L372.628 135.112L372.619 131.112L272.619 131.329L259.402 31.357C256.353 8.36355 238.836 0.901504 211.836 0.960039L51.8369 1.30691C27.3369 1.36003 0.861473 12.7175 0.903098 31.9174L1.05811 103.417Z" fill="url(#paint0_linear)"/>
<g id="Vector_2">
<path d="M240.903 31.3971C240.881 21.3971 221.88 20.9383 211.88 20.96L173.88 21.0424L173.975 65.0423L211.975 64.9599C221.642 64.7723 240.97 62.497 240.953 54.897L240.903 31.3971Z" fill="url(#paint1_linear)"/>
<path d="M23.403 31.8686C23.3814 21.8687 42.3802 21.3275 52.3802 21.3058L90.3801 21.2234L90.4755 65.2233L52.4756 65.3057C42.8086 65.16 23.4705 62.9686 23.454 55.3686L23.403 31.8686Z" fill="url(#paint2_linear)"/>
<path d="M162.88 21.0662L99.8801 21.2028L99.9755 65.2027L162.975 65.0661L162.88 21.0662Z" fill="url(#paint3_linear)"/>
</g>
<circle id="Ellipse" cx="123.627" cy="135.152" r="19" transform="rotate(-0.124216 123.627 135.152)" fill="#B1B1B1"/>
<circle id="Ellipse_2" cx="123.627" cy="135.151" r="13" transform="rotate(-0.124216 123.627 135.151)" fill="#F1F1F1"/>
</g>
<g id="car">
<path id="Vector_3" d="M338.999 102.876C332.47 138.371 353.972 135.389 371.472 135.403L380.472 135.411C380.49 113.911 398.493 109.925 404.993 109.931C411.493 109.936 427.99 113.95 427.972 135.45L492.472 135.503L549.972 135.55C549.99 114.05 567.993 110.065 574.493 110.07C580.993 110.075 597.49 114.089 597.472 135.589L626.972 135.613L623.993 110.111C622.498 104.11 622.002 99.6091 609.504 97.5988L561.014 85.059C543.536 57.5446 519.543 50.0248 492.543 50.0026L375.043 49.9061C360.043 49.8937 345.528 67.3818 338.999 102.876Z" fill="#E8A3A3"/>
<g id="Vector_4">
<path d="M503.311 88.0113C510.378 87.8959 552.509 90.5518 551.014 85.0505C548.159 74.5482 526.378 56.0303 503.338 56.0113L480.038 55.9922L475.511 87.9885L503.311 88.0113Z" fill="url(#paint4_linear)"/>
<path d="M365.531 63.5344C368.344 56.8278 379.427 55.9095 386.738 55.9155L414.517 55.9383L408.011 87.933L386.711 87.9155C379.645 87.7885 360.012 87.4208 360.016 81.8935C360.022 74.9845 362.025 71.8952 365.531 63.5344Z" fill="url(#paint5_linear)"/>
<path d="M471.996 55.9856L421.462 55.944L416.011 87.9396L467.47 87.9819L471.996 55.9856Z" fill="url(#paint6_linear)"/>
</g>
<g id="car-wheels">
<circle id="Ellipse_3" cx="404.473" cy="134.93" r="19" transform="rotate(0.0470944 404.473 134.93)" fill="#B1B1B1"/>
<circle id="Ellipse_4" cx="404.473" cy="134.93" r="13" transform="rotate(0.0470944 404.473 134.93)" fill="#F1F1F1"/>
<circle id="Ellipse_5" cx="573.473" cy="135.069" r="19" transform="rotate(0.0470944 573.473 135.069)" fill="#B1B1B1"/>
<circle id="Ellipse_6" cx="573.473" cy="135.069" r="13" transform="rotate(0.0470944 573.473 135.069)" fill="#F1F1F1"/>
</g>
</g>
</g>
<defs>
<linearGradient id="paint0_linear" x1="186.587" y1="1.01478" x2="186.878" y2="135.515" gradientUnits="userSpaceOnUse">
<stop stop-opacity="0.1"/>
<stop offset="1" stop-color="#717171"/>
</linearGradient>
<linearGradient id="paint1_linear" x1="132.363" y1="13.1324" x2="145.638" y2="140.104" gradientUnits="userSpaceOnUse">
<stop stop-color="#A1D9E7"/>
<stop offset="1" stop-color="#9AD6E4" stop-opacity="0"/>
</linearGradient>
<linearGradient id="paint2_linear" x1="132.363" y1="13.1324" x2="145.638" y2="140.104" gradientUnits="userSpaceOnUse">
<stop stop-color="#A1D9E7"/>
<stop offset="1" stop-color="#9AD6E4" stop-opacity="0"/>
</linearGradient>
<linearGradient id="paint3_linear" x1="132.363" y1="13.1324" x2="145.638" y2="140.104" gradientUnits="userSpaceOnUse">
<stop stop-color="#A1D9E7"/>
<stop offset="1" stop-color="#9AD6E4" stop-opacity="0"/>
</linearGradient>
<linearGradient id="paint4_linear" x1="455.557" y1="55.9721" x2="480.904" y2="217.993" gradientUnits="userSpaceOnUse">
<stop stop-color="#93D7E6"/>
<stop offset="1" stop-color="white" stop-opacity="0"/>
</linearGradient>
<linearGradient id="paint5_linear" x1="455.557" y1="55.9721" x2="480.904" y2="217.993" gradientUnits="userSpaceOnUse">
<stop stop-color="#93D7E6"/>
<stop offset="1" stop-color="white" stop-opacity="0"/>
</linearGradient>
<linearGradient id="paint6_linear" x1="455.557" y1="55.9721" x2="480.904" y2="217.993" gradientUnits="userSpaceOnUse">
<stop stop-color="#93D7E6"/>
<stop offset="1" stop-color="white" stop-opacity="0"/>
</linearGradient>
</defs>
</svg>
