<svg width="373" height="155" viewBox="0 0 373 155" fill="none" xmlns="http://www.w3.org/2000/svg">
<path d="M1.05731 103.412C1.12842 136.212 34.6277 135.84 52.1277 135.802L100.128 135.698C100.081 114.198 118.072 110.159 124.572 110.145C131.072 110.131 147.581 114.095 147.627 135.595L212.127 135.455L372.627 135.107L372.618 131.107L272.618 131.324L259.402 31.3521C256.352 8.35866 238.836 0.896621 211.836 0.955156L51.8361 1.30203C27.3361 1.35515 0.86068 12.7126 0.902305 31.9125L1.05731 103.412Z" fill="url(#paint0_linear)"/>
<path d="M240.902 31.3922C240.88 21.3922 221.879 20.9334 211.879 20.9551L173.879 21.0375L173.975 65.0374L211.974 64.955C221.641 64.7674 240.969 62.4921 240.953 54.8922L240.902 31.3922Z" fill="url(#paint1_linear)"/>
<path d="M23.4023 31.8637C23.3806 21.8638 42.3795 21.3226 52.3794 21.3009L90.3794 21.2185L90.4748 65.2184L52.4748 65.3008C42.8078 65.1551 23.4697 62.9637 23.4532 55.3637L23.4023 31.8637Z" fill="url(#paint2_linear)"/>
<path d="M162.879 21.0613L99.8793 21.1979L99.9747 65.1978L162.975 65.0612L162.879 21.0613Z" fill="url(#paint3_linear)"/>
<circle cx="123.626" cy="135.147" r="19" transform="rotate(-0.124216 123.626 135.147)" fill="#B1B1B1"/>
<circle cx="123.626" cy="135.147" r="13" transform="rotate(-0.124216 123.626 135.147)" fill="#F1F1F1"/>
<defs>
<linearGradient id="paint0_linear" x1="186.586" y1="1.0099" x2="186.877" y2="135.51" gradientUnits="userSpaceOnUse">
<stop stop-opacity="0.1"/>
<stop offset="1" stop-color="#717171"/>
</linearGradient>
<linearGradient id="paint1_linear" x1="132.362" y1="13.1275" x2="145.637" y2="140.099" gradientUnits="userSpaceOnUse">
<stop stop-color="#A1D9E7"/>
<stop offset="1" stop-color="#9AD6E4" stop-opacity="0"/>
</linearGradient>
<linearGradient id="paint2_linear" x1="132.362" y1="13.1275" x2="145.637" y2="140.099" gradientUnits="userSpaceOnUse">
<stop stop-color="#A1D9E7"/>
<stop offset="1" stop-color="#9AD6E4" stop-opacity="0"/>
</linearGradient>
<linearGradient id="paint3_linear" x1="132.362" y1="13.1275" x2="145.637" y2="140.099" gradientUnits="userSpaceOnUse">
<stop stop-color="#A1D9E7"/>
<stop offset="1" stop-color="#9AD6E4" stop-opacity="0"/>
</linearGradient>
</defs>
</svg>
