<svg width="4308" height="857" viewBox="0 0 4308 857" fill="none" xmlns="http://www.w3.org/2000/svg">
<g id="rear">
<path id="mouontains-back-shadows" opacity="0.9" d="M704.5 172L991.5 311L1166.5 227.5L1509 275.5L1720 0.5L2005.33 227.5L2054.5 203.5L2472.5 319.629L2703.5 144L3372.5 266.334L3117.5 446.5L2703.5 144L2472.5 319.629L2436.5 347L2054.5 203.5L2005.33 227.5L1875 311L1720 0.5L1509 275.5L1341.5 319.629L1166.5 227.5L991.5 311L911.5 558L704.5 172Z" fill="url(#paint0_linear)"/>
<g id="Group">
<path id="Vector" d="M541.639 300.34L542.29 299.096L547.507 296V319H545.21L545.611 315.763C544.626 315.785 540.126 314.641 538 314.066L538.471 312.073C540.21 311.131 543.566 309.277 543.189 309.401C542.813 309.526 541.363 309.255 540.671 309.104L539.439 307.663L539.91 306.065C541.074 305.447 543.155 304.344 543.62 304.103C543.226 304.257 542.155 304.288 541.639 304.284L540.671 303.521L541.252 302.135C542.138 301.73 543.829 300.928 543.508 300.962C543.187 300.996 542.562 300.825 542.29 300.736L541.639 300.34Z" fill="url(#paint1_linear)"/>
<path id="Vector_2" d="M553.361 300.34L552.71 299.096L547.493 296V319H549.79L549.389 315.763C550.374 315.785 554.874 314.641 557 314.066L556.529 312.073C554.79 311.131 551.434 309.277 551.811 309.401C552.187 309.526 553.637 309.255 554.329 309.104L555.561 307.663L555.09 306.065C553.926 305.447 551.845 304.344 551.38 304.103C551.774 304.257 552.845 304.288 553.361 304.284L554.329 303.521L553.748 302.135C552.862 301.73 551.171 300.928 551.492 300.962C551.813 300.996 552.438 300.825 552.71 300.736L553.361 300.34Z" fill="url(#paint2_linear)"/>
</g>
<g id="Group_2">
<path id="Vector_3" d="M783.639 389.34L784.29 388.096L789.507 385V408H787.21L787.611 404.763C786.626 404.785 782.126 403.641 780 403.066L780.471 401.073C782.21 400.131 785.566 398.277 785.189 398.401C784.813 398.526 783.363 398.255 782.671 398.104L781.439 396.663L781.91 395.065C783.074 394.447 785.155 393.344 785.62 393.103C785.226 393.257 784.155 393.288 783.639 393.284L782.671 392.521L783.252 391.135C784.138 390.73 785.829 389.928 785.508 389.962C785.187 389.996 784.562 389.825 784.29 389.736L783.639 389.34Z" fill="url(#paint3_linear)"/>
<path id="Vector_4" d="M795.361 389.34L794.71 388.096L789.493 385V408H791.79L791.389 404.763C792.374 404.785 796.874 403.641 799 403.066L798.529 401.073C796.79 400.131 793.434 398.277 793.811 398.401C794.187 398.526 795.637 398.255 796.329 398.104L797.561 396.663L797.09 395.065C795.926 394.447 793.845 393.344 793.38 393.103C793.774 393.257 794.845 393.288 795.361 393.284L796.329 392.521L795.748 391.135C794.862 390.73 793.171 389.928 793.492 389.962C793.813 389.996 794.438 389.825 794.71 389.736L795.361 389.34Z" fill="url(#paint4_linear)"/>
</g>
<g id="Group_3">
<path id="Vector_5" d="M1126.64 412.34L1127.29 411.096L1132.51 408V431H1130.21L1130.61 427.763C1129.63 427.785 1125.13 426.641 1123 426.066L1123.47 424.073C1125.21 423.131 1128.57 421.277 1128.19 421.401C1127.81 421.526 1126.36 421.255 1125.67 421.104L1124.44 419.663L1124.91 418.065C1126.07 417.447 1128.15 416.344 1128.62 416.103C1128.23 416.257 1127.16 416.288 1126.64 416.284L1125.67 415.521L1126.25 414.135C1127.14 413.73 1128.83 412.928 1128.51 412.962C1128.19 412.996 1127.56 412.825 1127.29 412.736L1126.64 412.34Z" fill="url(#paint5_linear)"/>
<path id="Vector_6" d="M1138.36 412.34L1137.71 411.096L1132.49 408V431H1134.79L1134.39 427.763C1135.37 427.785 1139.87 426.641 1142 426.066L1141.53 424.073C1139.79 423.131 1136.43 421.277 1136.81 421.401C1137.19 421.526 1138.64 421.255 1139.33 421.104L1140.56 419.663L1140.09 418.065C1138.93 417.447 1136.85 416.344 1136.38 416.103C1136.77 416.257 1137.84 416.288 1138.36 416.284L1139.33 415.521L1138.75 414.135C1137.86 413.73 1136.17 412.928 1136.49 412.962C1136.81 412.996 1137.44 412.825 1137.71 412.736L1138.36 412.34Z" fill="url(#paint6_linear)"/>
</g>
<g id="Group_4">
<path id="Vector_7" d="M1156.49 266.83L1156.94 266.019L1160.5 264V279H1158.93L1159.21 276.889C1158.53 276.904 1155.45 276.157 1154 275.782L1154.32 274.482C1155.51 273.868 1157.81 272.659 1157.55 272.74C1157.29 272.821 1156.3 272.645 1155.83 272.546L1154.98 271.606L1155.31 270.564C1156.1 270.161 1157.53 269.441 1157.85 269.285C1157.58 269.385 1156.84 269.405 1156.49 269.403L1155.83 268.905L1156.23 268.001C1156.83 267.737 1157.99 267.214 1157.77 267.236C1157.55 267.258 1157.12 267.147 1156.94 267.089L1156.49 266.83Z" fill="url(#paint7_linear)"/>
<path id="Vector_8" d="M1164.51 266.83L1164.06 266.019L1160.5 264V279H1162.07L1161.79 276.889C1162.47 276.904 1165.55 276.157 1167 275.782L1166.68 274.482C1165.49 273.868 1163.19 272.659 1163.45 272.74C1163.71 272.821 1164.7 272.645 1165.17 272.546L1166.02 271.606L1165.69 270.564C1164.9 270.161 1163.47 269.441 1163.15 269.285C1163.42 269.385 1164.16 269.405 1164.51 269.403L1165.17 268.905L1164.77 268.001C1164.17 267.737 1163.01 267.214 1163.23 267.236C1163.45 267.258 1163.88 267.147 1164.06 267.089L1164.51 266.83Z" fill="url(#paint8_linear)"/>
</g>
<g id="Group_5">
<path id="Vector_9" d="M1484.49 290.83L1484.94 290.019L1488.5 288V303H1486.93L1487.21 300.889C1486.53 300.904 1483.45 300.157 1482 299.782L1482.32 298.482C1483.51 297.868 1485.81 296.659 1485.55 296.74C1485.29 296.821 1484.3 296.645 1483.83 296.546L1482.98 295.606L1483.31 294.564C1484.1 294.161 1485.53 293.441 1485.85 293.285C1485.58 293.385 1484.84 293.405 1484.49 293.403L1483.83 292.905L1484.23 292.001C1484.83 291.737 1485.99 291.214 1485.77 291.236C1485.55 291.258 1485.12 291.147 1484.94 291.089L1484.49 290.83Z" fill="url(#paint9_linear)"/>
<path id="Vector_10" d="M1492.51 290.83L1492.06 290.019L1488.5 288V303H1490.07L1489.79 300.889C1490.47 300.904 1493.55 300.157 1495 299.782L1494.68 298.482C1493.49 297.868 1491.19 296.659 1491.45 296.74C1491.71 296.821 1492.7 296.645 1493.17 296.546L1494.02 295.606L1493.69 294.564C1492.9 294.161 1491.47 293.441 1491.15 293.285C1491.42 293.385 1492.16 293.405 1492.51 293.403L1493.17 292.905L1492.77 292.001C1492.17 291.737 1491.01 291.214 1491.23 291.236C1491.45 291.258 1491.88 291.147 1492.06 291.089L1492.51 290.83Z" fill="url(#paint10_linear)"/>
</g>
<g id="Group_6">
<path id="Vector_11" d="M2076.49 225.83L2076.94 225.019L2080.5 223V238H2078.93L2079.21 235.889C2078.53 235.904 2075.45 235.157 2074 234.782L2074.32 233.482C2075.51 232.868 2077.81 231.659 2077.55 231.74C2077.29 231.821 2076.3 231.645 2075.83 231.546L2074.98 230.606L2075.31 229.564C2076.1 229.161 2077.53 228.441 2077.85 228.285C2077.58 228.385 2076.84 228.405 2076.49 228.403L2075.83 227.905L2076.23 227.001C2076.83 226.737 2077.99 226.214 2077.77 226.236C2077.55 226.258 2077.12 226.147 2076.94 226.089L2076.49 225.83Z" fill="url(#paint11_linear)"/>
<path id="Vector_12" d="M2084.51 225.83L2084.06 225.019L2080.5 223V238H2082.07L2081.79 235.889C2082.47 235.904 2085.55 235.157 2087 234.782L2086.68 233.482C2085.49 232.868 2083.19 231.659 2083.45 231.74C2083.71 231.821 2084.7 231.645 2085.17 231.546L2086.02 230.606L2085.69 229.564C2084.9 229.161 2083.47 228.441 2083.15 228.285C2083.42 228.385 2084.16 228.405 2084.51 228.403L2085.17 227.905L2084.77 227.001C2084.17 226.737 2083.01 226.214 2083.23 226.236C2083.45 226.258 2083.88 226.147 2084.06 226.089L2084.51 225.83Z" fill="url(#paint12_linear)"/>
</g>
<g id="Group_7">
<path id="Vector_13" d="M2719.49 134.83L2719.94 134.019L2723.5 132V147H2721.93L2722.21 144.889C2721.53 144.904 2718.45 144.157 2717 143.782L2717.32 142.482C2718.51 141.868 2720.81 140.659 2720.55 140.74C2720.29 140.821 2719.3 140.645 2718.83 140.546L2717.98 139.606L2718.31 138.564C2719.1 138.161 2720.53 137.441 2720.85 137.285C2720.58 137.385 2719.84 137.405 2719.49 137.403L2718.83 136.905L2719.23 136.001C2719.83 135.737 2720.99 135.214 2720.77 135.236C2720.55 135.258 2720.12 135.147 2719.94 135.089L2719.49 134.83Z" fill="url(#paint13_linear)"/>
<path id="Vector_14" d="M2727.51 134.83L2727.06 134.019L2723.5 132V147H2725.07L2724.79 144.889C2725.47 144.904 2728.55 144.157 2730 143.782L2729.68 142.482C2728.49 141.868 2726.19 140.659 2726.45 140.74C2726.71 140.821 2727.7 140.645 2728.17 140.546L2729.02 139.606L2728.69 138.564C2727.9 138.161 2726.47 137.441 2726.15 137.285C2726.42 137.385 2727.16 137.405 2727.51 137.403L2728.17 136.905L2727.77 136.001C2727.17 135.737 2726.01 135.214 2726.23 135.236C2726.45 135.258 2726.88 135.147 2727.06 135.089L2727.51 134.83Z" fill="url(#paint14_linear)"/>
</g>
<g id="Group_8">
<path id="Vector_15" d="M3317.49 244.83L3317.94 244.019L3321.5 242V257H3319.93L3320.21 254.889C3319.53 254.904 3316.45 254.157 3315 253.782L3315.32 252.482C3316.51 251.868 3318.81 250.659 3318.55 250.74C3318.29 250.821 3317.3 250.645 3316.83 250.546L3315.98 249.606L3316.31 248.564C3317.1 248.161 3318.53 247.441 3318.85 247.285C3318.58 247.385 3317.84 247.405 3317.49 247.403L3316.83 246.905L3317.23 246.001C3317.83 245.737 3318.99 245.214 3318.77 245.236C3318.55 245.258 3318.12 245.147 3317.94 245.089L3317.49 244.83Z" fill="url(#paint15_linear)"/>
<path id="Vector_16" d="M3325.51 244.83L3325.06 244.019L3321.5 242V257H3323.07L3322.79 254.889C3323.47 254.904 3326.55 254.157 3328 253.782L3327.68 252.482C3326.49 251.868 3324.19 250.659 3324.45 250.74C3324.71 250.821 3325.7 250.645 3326.17 250.546L3327.02 249.606L3326.69 248.564C3325.9 248.161 3324.47 247.441 3324.15 247.285C3324.42 247.385 3325.16 247.405 3325.51 247.403L3326.17 246.905L3325.77 246.001C3325.17 245.737 3324.01 245.214 3324.23 245.236C3324.45 245.258 3324.88 245.147 3325.06 245.089L3325.51 244.83Z" fill="url(#paint16_linear)"/>
</g>
<g id="Group_9">
<path id="Vector_17" d="M1534.64 332.34L1535.29 331.096L1540.51 328V351H1538.21L1538.61 347.763C1537.63 347.785 1533.13 346.641 1531 346.066L1531.47 344.073C1533.21 343.131 1536.57 341.277 1536.19 341.401C1535.81 341.526 1534.36 341.255 1533.67 341.104L1532.44 339.663L1532.91 338.065C1534.07 337.447 1536.15 336.344 1536.62 336.103C1536.23 336.257 1535.16 336.288 1534.64 336.284L1533.67 335.521L1534.25 334.135C1535.14 333.73 1536.83 332.928 1536.51 332.962C1536.19 332.996 1535.56 332.825 1535.29 332.736L1534.64 332.34Z" fill="url(#paint17_linear)"/>
<path id="Vector_18" d="M1546.36 332.34L1545.71 331.096L1540.49 328V351H1542.79L1542.39 347.763C1543.37 347.785 1547.87 346.641 1550 346.066L1549.53 344.073C1547.79 343.131 1544.43 341.277 1544.81 341.401C1545.19 341.526 1546.64 341.255 1547.33 341.104L1548.56 339.663L1548.09 338.065C1546.93 337.447 1544.85 336.344 1544.38 336.103C1544.77 336.257 1545.84 336.288 1546.36 336.284L1547.33 335.521L1546.75 334.135C1545.86 333.73 1544.17 332.928 1544.49 332.962C1544.81 332.996 1545.44 332.825 1545.71 332.736L1546.36 332.34Z" fill="url(#paint18_linear)"/>
</g>
<g id="Group_10">
<path id="Vector_19" d="M1870.64 378.34L1871.29 377.096L1876.51 374V397H1874.21L1874.61 393.763C1873.63 393.785 1869.13 392.641 1867 392.066L1867.47 390.073C1869.21 389.131 1872.57 387.277 1872.19 387.401C1871.81 387.526 1870.36 387.255 1869.67 387.104L1868.44 385.663L1868.91 384.065C1870.07 383.447 1872.15 382.344 1872.62 382.103C1872.23 382.257 1871.16 382.288 1870.64 382.284L1869.67 381.521L1870.25 380.135C1871.14 379.73 1872.83 378.928 1872.51 378.962C1872.19 378.996 1871.56 378.825 1871.29 378.736L1870.64 378.34Z" fill="url(#paint19_linear)"/>
<path id="Vector_20" d="M1882.36 378.34L1881.71 377.096L1876.49 374V397H1878.79L1878.39 393.763C1879.37 393.785 1883.87 392.641 1886 392.066L1885.53 390.073C1883.79 389.131 1880.43 387.277 1880.81 387.401C1881.19 387.526 1882.64 387.255 1883.33 387.104L1884.56 385.663L1884.09 384.065C1882.93 383.447 1880.85 382.344 1880.38 382.103C1880.77 382.257 1881.84 382.288 1882.36 382.284L1883.33 381.521L1882.75 380.135C1881.86 379.73 1880.17 378.928 1880.49 378.962C1880.81 378.996 1881.44 378.825 1881.71 378.736L1882.36 378.34Z" fill="url(#paint20_linear)"/>
</g>
<g id="Group_11">
<path id="Vector_21" d="M2111.64 249.34L2112.29 248.096L2117.51 245V268H2115.21L2115.61 264.763C2114.63 264.785 2110.13 263.641 2108 263.066L2108.47 261.073C2110.21 260.131 2113.57 258.277 2113.19 258.401C2112.81 258.526 2111.36 258.255 2110.67 258.104L2109.44 256.663L2109.91 255.065C2111.07 254.447 2113.15 253.344 2113.62 253.103C2113.23 253.257 2112.16 253.288 2111.64 253.284L2110.67 252.521L2111.25 251.135C2112.14 250.73 2113.83 249.928 2113.51 249.962C2113.19 249.996 2112.56 249.825 2112.29 249.736L2111.64 249.34Z" fill="url(#paint21_linear)"/>
<path id="Vector_22" d="M2123.36 249.34L2122.71 248.096L2117.49 245V268H2119.79L2119.39 264.763C2120.37 264.785 2124.87 263.641 2127 263.066L2126.53 261.073C2124.79 260.131 2121.43 258.277 2121.81 258.401C2122.19 258.526 2123.64 258.255 2124.33 258.104L2125.56 256.663L2125.09 255.065C2123.93 254.447 2121.85 253.344 2121.38 253.103C2121.77 253.257 2122.84 253.288 2123.36 253.284L2124.33 252.521L2123.75 251.135C2122.86 250.73 2121.17 249.928 2121.49 249.962C2121.81 249.996 2122.44 249.825 2122.71 249.736L2123.36 249.34Z" fill="url(#paint22_linear)"/>
</g>
<g id="Group_12">
<path id="Vector_23" d="M2810.64 367.34L2811.29 366.096L2816.51 363V386H2814.21L2814.61 382.763C2813.63 382.785 2809.13 381.641 2807 381.066L2807.47 379.073C2809.21 378.131 2812.57 376.277 2812.19 376.401C2811.81 376.526 2810.36 376.255 2809.67 376.104L2808.44 374.663L2808.91 373.065C2810.07 372.447 2812.15 371.344 2812.62 371.103C2812.23 371.257 2811.16 371.288 2810.64 371.284L2809.67 370.521L2810.25 369.135C2811.14 368.73 2812.83 367.928 2812.51 367.962C2812.19 367.996 2811.56 367.825 2811.29 367.736L2810.64 367.34Z" fill="url(#paint23_linear)"/>
<path id="Vector_24" d="M2822.36 367.34L2821.71 366.096L2816.49 363V386H2818.79L2818.39 382.763C2819.37 382.785 2823.87 381.641 2826 381.066L2825.53 379.073C2823.79 378.131 2820.43 376.277 2820.81 376.401C2821.19 376.526 2822.64 376.255 2823.33 376.104L2824.56 374.663L2824.09 373.065C2822.93 372.447 2820.85 371.344 2820.38 371.103C2820.77 371.257 2821.84 371.288 2822.36 371.284L2823.33 370.521L2822.75 369.135C2821.86 368.73 2820.17 367.928 2820.49 367.962C2820.81 367.996 2821.44 367.825 2821.71 367.736L2822.36 367.34Z" fill="url(#paint24_linear)"/>
</g>
<g id="Group_13">
<path id="Vector_25" d="M2727.64 300.34L2728.29 299.096L2733.51 296V319H2731.21L2731.61 315.763C2730.63 315.785 2726.13 314.641 2724 314.066L2724.47 312.073C2726.21 311.131 2729.57 309.277 2729.19 309.401C2728.81 309.526 2727.36 309.255 2726.67 309.104L2725.44 307.663L2725.91 306.065C2727.07 305.447 2729.15 304.344 2729.62 304.103C2729.23 304.257 2728.16 304.288 2727.64 304.284L2726.67 303.521L2727.25 302.135C2728.14 301.73 2729.83 300.928 2729.51 300.962C2729.19 300.996 2728.56 300.825 2728.29 300.736L2727.64 300.34Z" fill="url(#paint25_linear)"/>
<path id="Vector_26" d="M2739.36 300.34L2738.71 299.096L2733.49 296V319H2735.79L2735.39 315.763C2736.37 315.785 2740.87 314.641 2743 314.066L2742.53 312.073C2740.79 311.131 2737.43 309.277 2737.81 309.401C2738.19 309.526 2739.64 309.255 2740.33 309.104L2741.56 307.663L2741.09 306.065C2739.93 305.447 2737.85 304.344 2737.38 304.103C2737.77 304.257 2738.84 304.288 2739.36 304.284L2740.33 303.521L2739.75 302.135C2738.86 301.73 2737.17 300.928 2737.49 300.962C2737.81 300.996 2738.44 300.825 2738.71 300.736L2739.36 300.34Z" fill="url(#paint26_linear)"/>
</g>
<g id="Group_14">
<path id="Vector_27" d="M2782.64 249.34L2783.29 248.096L2788.51 245V268H2786.21L2786.61 264.763C2785.63 264.785 2781.13 263.641 2779 263.066L2779.47 261.073C2781.21 260.131 2784.57 258.277 2784.19 258.401C2783.81 258.526 2782.36 258.255 2781.67 258.104L2780.44 256.663L2780.91 255.065C2782.07 254.447 2784.15 253.344 2784.62 253.103C2784.23 253.257 2783.16 253.288 2782.64 253.284L2781.67 252.521L2782.25 251.135C2783.14 250.73 2784.83 249.928 2784.51 249.962C2784.19 249.996 2783.56 249.825 2783.29 249.736L2782.64 249.34Z" fill="url(#paint27_linear)"/>
<path id="Vector_28" d="M2794.36 249.34L2793.71 248.096L2788.49 245V268H2790.79L2790.39 264.763C2791.37 264.785 2795.87 263.641 2798 263.066L2797.53 261.073C2795.79 260.131 2792.43 258.277 2792.81 258.401C2793.19 258.526 2794.64 258.255 2795.33 258.104L2796.56 256.663L2796.09 255.065C2794.93 254.447 2792.85 253.344 2792.38 253.103C2792.77 253.257 2793.84 253.288 2794.36 253.284L2795.33 252.521L2794.75 251.135C2793.86 250.73 2792.17 249.928 2792.49 249.962C2792.81 249.996 2793.44 249.825 2793.71 249.736L2794.36 249.34Z" fill="url(#paint28_linear)"/>
</g>
<g id="Group_15">
<path id="Vector_29" d="M3087.64 379.34L3088.29 378.096L3093.51 375V398H3091.21L3091.61 394.763C3090.63 394.785 3086.13 393.641 3084 393.066L3084.47 391.073C3086.21 390.131 3089.57 388.277 3089.19 388.401C3088.81 388.526 3087.36 388.255 3086.67 388.104L3085.44 386.663L3085.91 385.065C3087.07 384.447 3089.15 383.344 3089.62 383.103C3089.23 383.257 3088.16 383.288 3087.64 383.284L3086.67 382.521L3087.25 381.135C3088.14 380.73 3089.83 379.928 3089.51 379.962C3089.19 379.996 3088.56 379.825 3088.29 379.736L3087.64 379.34Z" fill="url(#paint29_linear)"/>
<path id="Vector_30" d="M3099.36 379.34L3098.71 378.096L3093.49 375V398H3095.79L3095.39 394.763C3096.37 394.785 3100.87 393.641 3103 393.066L3102.53 391.073C3100.79 390.131 3097.43 388.277 3097.81 388.401C3098.19 388.526 3099.64 388.255 3100.33 388.104L3101.56 386.663L3101.09 385.065C3099.93 384.447 3097.85 383.344 3097.38 383.103C3097.77 383.257 3098.84 383.288 3099.36 383.284L3100.33 382.521L3099.75 381.135C3098.86 380.73 3097.17 379.928 3097.49 379.962C3097.81 379.996 3098.44 379.825 3098.71 379.736L3099.36 379.34Z" fill="url(#paint30_linear)"/>
</g>
<g id="Group_16">
<path id="Vector_31" d="M2837.64 198.34L2838.29 197.096L2843.51 194V217H2841.21L2841.61 213.763C2840.63 213.785 2836.13 212.641 2834 212.066L2834.47 210.073C2836.21 209.131 2839.57 207.277 2839.19 207.401C2838.81 207.526 2837.36 207.255 2836.67 207.104L2835.44 205.663L2835.91 204.065C2837.07 203.447 2839.15 202.344 2839.62 202.103C2839.23 202.257 2838.16 202.288 2837.64 202.284L2836.67 201.521L2837.25 200.135C2838.14 199.73 2839.83 198.928 2839.51 198.962C2839.19 198.996 2838.56 198.825 2838.29 198.736L2837.64 198.34Z" fill="url(#paint31_linear)"/>
<path id="Vector_32" d="M2849.36 198.34L2848.71 197.096L2843.49 194V217H2845.79L2845.39 213.763C2846.37 213.785 2850.87 212.641 2853 212.066L2852.53 210.073C2850.79 209.131 2847.43 207.277 2847.81 207.401C2848.19 207.526 2849.64 207.255 2850.33 207.104L2851.56 205.663L2851.09 204.065C2849.93 203.447 2847.85 202.344 2847.38 202.103C2847.77 202.257 2848.84 202.288 2849.36 202.284L2850.33 201.521L2849.75 200.135C2848.86 199.73 2847.17 198.928 2847.49 198.962C2847.81 198.996 2848.44 198.825 2848.71 198.736L2849.36 198.34Z" fill="url(#paint32_linear)"/>
</g>
<path id="mountains-back" opacity="0.9" d="M704.5 172L219 398.5L0 275.5V857H4308V478.5L3619 88L3372.5 266.334L3117.5 446.5L2703.5 144L2472.5 319.629L2436.5 347L2054.5 203.5L2005.33 227.5L1875 311L1720 0.5L1509 275.5L1341.5 319.629L1166.5 227.5L991.5 311L911.5 558L704.5 172Z" fill="url(#paint33_linear)"/>
</g>
<defs>
<linearGradient id="paint0_linear" x1="2241" y1="750" x2="2231" y2="-349.5" gradientUnits="userSpaceOnUse">
<stop stop-color="#A6A6A6"/>
<stop offset="0.902927" stop-color="#C4C4C4" stop-opacity="0"/>
</linearGradient>
<linearGradient id="paint1_linear" x1="547.493" y1="319.014" x2="530.915" y2="319.014" gradientUnits="userSpaceOnUse">
<stop stop-color="#E1E0E0"/>
<stop offset="1" stop-color="#E1E0E0" stop-opacity="0"/>
</linearGradient>
<linearGradient id="paint2_linear" x1="553.942" y1="313.6" x2="538.421" y2="280.759" gradientUnits="userSpaceOnUse">
<stop stop-color="#C4C4C4"/>
<stop offset="1" stop-color="#C4C4C4" stop-opacity="0"/>
</linearGradient>
<linearGradient id="paint3_linear" x1="789.493" y1="408.014" x2="772.915" y2="408.014" gradientUnits="userSpaceOnUse">
<stop stop-color="#E1E0E0"/>
<stop offset="1" stop-color="#E1E0E0" stop-opacity="0"/>
</linearGradient>
<linearGradient id="paint4_linear" x1="795.942" y1="402.6" x2="780.421" y2="369.759" gradientUnits="userSpaceOnUse">
<stop stop-color="#C4C4C4"/>
<stop offset="1" stop-color="#C4C4C4" stop-opacity="0"/>
</linearGradient>
<linearGradient id="paint5_linear" x1="1132.49" y1="431.014" x2="1115.91" y2="431.014" gradientUnits="userSpaceOnUse">
<stop stop-color="#E1E0E0"/>
<stop offset="1" stop-color="#E1E0E0" stop-opacity="0"/>
</linearGradient>
<linearGradient id="paint6_linear" x1="1138.94" y1="425.6" x2="1123.42" y2="392.759" gradientUnits="userSpaceOnUse">
<stop stop-color="#C4C4C4"/>
<stop offset="1" stop-color="#C4C4C4" stop-opacity="0"/>
</linearGradient>
<linearGradient id="paint7_linear" x1="1160.5" y1="279.009" x2="1149.15" y2="279.009" gradientUnits="userSpaceOnUse">
<stop stop-color="#E1E0E0"/>
<stop offset="1" stop-color="#E1E0E0" stop-opacity="0"/>
</linearGradient>
<linearGradient id="paint8_linear" x1="1164.91" y1="275.478" x2="1155.1" y2="253.696" gradientUnits="userSpaceOnUse">
<stop stop-color="#C4C4C4"/>
<stop offset="1" stop-color="#C4C4C4" stop-opacity="0"/>
</linearGradient>
<linearGradient id="paint9_linear" x1="1488.5" y1="303.009" x2="1477.15" y2="303.009" gradientUnits="userSpaceOnUse">
<stop stop-color="#E1E0E0"/>
<stop offset="1" stop-color="#E1E0E0" stop-opacity="0"/>
</linearGradient>
<linearGradient id="paint10_linear" x1="1492.91" y1="299.478" x2="1483.1" y2="277.696" gradientUnits="userSpaceOnUse">
<stop stop-color="#C4C4C4"/>
<stop offset="1" stop-color="#C4C4C4" stop-opacity="0"/>
</linearGradient>
<linearGradient id="paint11_linear" x1="2080.5" y1="238.009" x2="2069.15" y2="238.009" gradientUnits="userSpaceOnUse">
<stop stop-color="#E1E0E0"/>
<stop offset="1" stop-color="#E1E0E0" stop-opacity="0"/>
</linearGradient>
<linearGradient id="paint12_linear" x1="2084.91" y1="234.478" x2="2075.1" y2="212.696" gradientUnits="userSpaceOnUse">
<stop stop-color="#C4C4C4"/>
<stop offset="1" stop-color="#C4C4C4" stop-opacity="0"/>
</linearGradient>
<linearGradient id="paint13_linear" x1="2723.5" y1="147.009" x2="2712.15" y2="147.009" gradientUnits="userSpaceOnUse">
<stop stop-color="#E1E0E0"/>
<stop offset="1" stop-color="#E1E0E0" stop-opacity="0"/>
</linearGradient>
<linearGradient id="paint14_linear" x1="2727.91" y1="143.478" x2="2718.1" y2="121.696" gradientUnits="userSpaceOnUse">
<stop stop-color="#C4C4C4"/>
<stop offset="1" stop-color="#C4C4C4" stop-opacity="0"/>
</linearGradient>
<linearGradient id="paint15_linear" x1="3321.5" y1="257.009" x2="3310.15" y2="257.009" gradientUnits="userSpaceOnUse">
<stop stop-color="#E1E0E0"/>
<stop offset="1" stop-color="#E1E0E0" stop-opacity="0"/>
</linearGradient>
<linearGradient id="paint16_linear" x1="3325.91" y1="253.478" x2="3316.1" y2="231.696" gradientUnits="userSpaceOnUse">
<stop stop-color="#C4C4C4"/>
<stop offset="1" stop-color="#C4C4C4" stop-opacity="0"/>
</linearGradient>
<linearGradient id="paint17_linear" x1="1540.49" y1="351.014" x2="1523.91" y2="351.014" gradientUnits="userSpaceOnUse">
<stop stop-color="#E1E0E0"/>
<stop offset="1" stop-color="#E1E0E0" stop-opacity="0"/>
</linearGradient>
<linearGradient id="paint18_linear" x1="1546.94" y1="345.6" x2="1531.42" y2="312.759" gradientUnits="userSpaceOnUse">
<stop stop-color="#C4C4C4"/>
<stop offset="1" stop-color="#C4C4C4" stop-opacity="0"/>
</linearGradient>
<linearGradient id="paint19_linear" x1="1876.49" y1="397.014" x2="1859.91" y2="397.014" gradientUnits="userSpaceOnUse">
<stop stop-color="#E1E0E0"/>
<stop offset="1" stop-color="#E1E0E0" stop-opacity="0"/>
</linearGradient>
<linearGradient id="paint20_linear" x1="1882.94" y1="391.6" x2="1867.42" y2="358.759" gradientUnits="userSpaceOnUse">
<stop stop-color="#C4C4C4"/>
<stop offset="1" stop-color="#C4C4C4" stop-opacity="0"/>
</linearGradient>
<linearGradient id="paint21_linear" x1="2117.49" y1="268.014" x2="2100.91" y2="268.014" gradientUnits="userSpaceOnUse">
<stop stop-color="#E1E0E0"/>
<stop offset="1" stop-color="#E1E0E0" stop-opacity="0"/>
</linearGradient>
<linearGradient id="paint22_linear" x1="2123.94" y1="262.6" x2="2108.42" y2="229.759" gradientUnits="userSpaceOnUse">
<stop stop-color="#C4C4C4"/>
<stop offset="1" stop-color="#C4C4C4" stop-opacity="0"/>
</linearGradient>
<linearGradient id="paint23_linear" x1="2816.49" y1="386.014" x2="2799.91" y2="386.014" gradientUnits="userSpaceOnUse">
<stop stop-color="#E1E0E0"/>
<stop offset="1" stop-color="#E1E0E0" stop-opacity="0"/>
</linearGradient>
<linearGradient id="paint24_linear" x1="2822.94" y1="380.6" x2="2807.42" y2="347.759" gradientUnits="userSpaceOnUse">
<stop stop-color="#C4C4C4"/>
<stop offset="1" stop-color="#C4C4C4" stop-opacity="0"/>
</linearGradient>
<linearGradient id="paint25_linear" x1="2733.49" y1="319.014" x2="2716.91" y2="319.014" gradientUnits="userSpaceOnUse">
<stop stop-color="#E1E0E0"/>
<stop offset="1" stop-color="#E1E0E0" stop-opacity="0"/>
</linearGradient>
<linearGradient id="paint26_linear" x1="2739.94" y1="313.6" x2="2724.42" y2="280.759" gradientUnits="userSpaceOnUse">
<stop stop-color="#C4C4C4"/>
<stop offset="1" stop-color="#C4C4C4" stop-opacity="0"/>
</linearGradient>
<linearGradient id="paint27_linear" x1="2788.49" y1="268.014" x2="2771.91" y2="268.014" gradientUnits="userSpaceOnUse">
<stop stop-color="#E1E0E0"/>
<stop offset="1" stop-color="#E1E0E0" stop-opacity="0"/>
</linearGradient>
<linearGradient id="paint28_linear" x1="2794.94" y1="262.6" x2="2779.42" y2="229.759" gradientUnits="userSpaceOnUse">
<stop stop-color="#C4C4C4"/>
<stop offset="1" stop-color="#C4C4C4" stop-opacity="0"/>
</linearGradient>
<linearGradient id="paint29_linear" x1="3093.49" y1="398.014" x2="3076.91" y2="398.014" gradientUnits="userSpaceOnUse">
<stop stop-color="#E1E0E0"/>
<stop offset="1" stop-color="#E1E0E0" stop-opacity="0"/>
</linearGradient>
<linearGradient id="paint30_linear" x1="3099.94" y1="392.6" x2="3084.42" y2="359.759" gradientUnits="userSpaceOnUse">
<stop stop-color="#C4C4C4"/>
<stop offset="1" stop-color="#C4C4C4" stop-opacity="0"/>
</linearGradient>
<linearGradient id="paint31_linear" x1="2843.49" y1="217.014" x2="2826.91" y2="217.014" gradientUnits="userSpaceOnUse">
<stop stop-color="#E1E0E0"/>
<stop offset="1" stop-color="#E1E0E0" stop-opacity="0"/>
</linearGradient>
<linearGradient id="paint32_linear" x1="2849.94" y1="211.6" x2="2834.42" y2="178.759" gradientUnits="userSpaceOnUse">
<stop stop-color="#C4C4C4"/>
<stop offset="1" stop-color="#C4C4C4" stop-opacity="0"/>
</linearGradient>
<linearGradient id="paint33_linear" x1="2201.5" y1="116" x2="2201.5" y2="509.999" gradientUnits="userSpaceOnUse">
<stop stop-color="#E8E8E8"/>
<stop offset="1" stop-color="#C4C4C4" stop-opacity="0"/>
</linearGradient>
</defs>
</svg>
