<svg width="394" height="856" viewBox="0 0 394 856" fill="none" xmlns="http://www.w3.org/2000/svg">
<path d="M38.0708 668.588L44.7459 656.093L98.2893 625V856H74.7132L78.8319 823.487C68.7197 823.714 22.5427 812.223 0.718262 806.449L5.5471 786.43C23.3949 776.965 57.8406 758.347 53.9776 759.596C50.1145 760.846 35.2303 758.129 28.129 756.615L15.4888 742.133L20.3177 726.089C32.2658 719.88 53.6235 708.798 58.3962 706.385C54.3507 707.93 43.3623 708.244 38.0708 708.2L28.129 700.533L34.0941 686.619C43.1837 682.549 60.5391 674.494 57.2441 674.835C53.9491 675.175 47.5391 673.462 44.7459 672.563L38.0708 668.588Z" fill="url(#paint0_linear)"/>
<path d="M158.366 668.588L151.691 656.093L98.1473 625V856H121.723L117.605 823.487C127.717 823.714 173.894 812.223 195.718 806.449L190.889 786.43C173.042 776.965 138.596 758.347 142.459 759.596C146.322 760.846 161.206 758.129 168.307 756.615L180.948 742.133L176.119 726.089C164.171 719.88 142.813 708.798 138.04 706.385C142.086 707.93 153.074 708.244 158.366 708.2L168.307 700.533L162.342 686.619C153.253 682.549 135.897 674.494 139.192 674.835C142.487 675.175 148.897 673.462 151.691 672.563L158.366 668.588Z" fill="url(#paint1_linear)"/>
<path d="M194.031 680.098L202.487 664.304L270.308 625V917H240.445L245.662 875.901C232.853 876.188 174.363 861.663 146.718 854.364L152.835 829.059C175.442 817.094 219.073 793.56 214.18 795.139C209.287 796.718 190.433 793.284 181.439 791.37L165.428 773.064L171.544 752.784C186.678 744.935 213.732 730.927 219.777 727.877C214.653 729.829 200.734 730.226 194.031 730.17L181.439 720.479L188.994 702.891C200.508 697.746 222.491 687.564 218.318 687.994C214.144 688.425 206.025 686.26 202.487 685.123L194.031 680.098Z" fill="url(#paint2_linear)"/>
<path d="M346.405 680.098L337.95 664.304L270.128 625V917H299.991L294.774 875.901C307.583 876.188 366.074 861.663 393.718 854.364L387.602 829.059C364.995 817.094 321.363 793.56 326.257 795.139C331.15 796.718 350.003 793.284 358.998 791.37L375.009 773.064L368.892 752.784C353.758 744.935 326.705 730.927 320.66 727.877C325.784 729.829 339.703 730.226 346.405 730.17L358.998 720.479L351.442 702.891C339.929 697.746 317.945 687.564 322.119 687.994C326.292 688.425 334.412 686.26 337.95 685.123L346.405 680.098Z" fill="url(#paint3_linear)"/>
<defs>
<linearGradient id="paint0_linear" x1="98.1473" y1="856.142" x2="-71.9984" y2="856.142" gradientUnits="userSpaceOnUse">
<stop stop-color="#E1E0E0"/>
<stop offset="1" stop-color="#E1E0E0" stop-opacity="0"/>
</linearGradient>
<linearGradient id="paint1_linear" x1="164.331" y1="801.764" x2="10.5994" y2="469.353" gradientUnits="userSpaceOnUse">
<stop stop-color="#C4C4C4"/>
<stop offset="1" stop-color="#C4C4C4" stop-opacity="0"/>
</linearGradient>
<linearGradient id="paint2_linear" x1="270.128" y1="917.179" x2="54.6105" y2="917.179" gradientUnits="userSpaceOnUse">
<stop stop-color="#E1E0E0"/>
<stop offset="1" stop-color="#E1E0E0" stop-opacity="0"/>
</linearGradient>
<linearGradient id="paint3_linear" x1="353.961" y1="848.442" x2="159.892" y2="427.948" gradientUnits="userSpaceOnUse">
<stop stop-color="#C4C4C4"/>
<stop offset="1" stop-color="#C4C4C4" stop-opacity="0"/>
</linearGradient>
</defs>
</svg>
